<svg width="378" height="81" viewBox="0 0 378 81" fill="none" xmlns="http://www.w3.org/2000/svg">
<path d="M146.684 28.0013C146.656 27.8047 146.487 27.6923 146.347 27.6923C146.206 27.6923 143.426 27.6362 143.426 27.6362C143.426 27.6362 141.094 25.3891 140.87 25.1363C140.645 24.9116 140.195 24.9677 140.027 25.0239C140.027 25.0239 139.577 25.1644 138.847 25.3891C138.735 24.9958 138.538 24.5183 138.285 24.0127C137.471 22.4397 136.235 21.5971 134.774 21.5971C134.662 21.5971 134.578 21.5971 134.465 21.6252C134.409 21.569 134.381 21.5128 134.325 21.4847C133.679 20.8106 132.864 20.4735 131.881 20.5016C129.999 20.5578 128.117 21.9341 126.572 24.3498C125.505 26.0632 124.69 28.1979 124.438 29.8552C122.275 30.5293 120.758 31.0068 120.702 31.0068C119.606 31.3439 119.578 31.372 119.438 32.4113C119.382 33.1977 116.517 55.3598 116.517 55.3598L140.561 59.5169L150.981 56.9327C150.953 56.9327 146.712 28.1979 146.684 28.0013ZM137.639 25.7823C137.078 25.9508 136.46 26.1475 135.785 26.3722C135.785 25.4172 135.645 24.0689 135.224 22.9453C136.656 23.1701 137.358 24.7992 137.639 25.7823ZM134.521 26.7373C133.257 27.1306 131.881 27.5519 130.505 27.9732C130.898 26.4845 131.628 25.0239 132.527 24.0408C132.864 23.6757 133.342 23.2824 133.875 23.0577C134.437 24.1532 134.55 25.698 134.521 26.7373ZM131.937 21.7656C132.387 21.7656 132.752 21.8499 133.061 22.0746C132.555 22.3274 132.05 22.7206 131.6 23.2262C130.392 24.5183 129.466 26.5126 129.1 28.4507C127.949 28.8159 126.825 29.153 125.814 29.4619C126.488 26.4003 129.044 21.8499 131.937 21.7656Z" fill="#95BF47"/>
<path d="M146.346 27.6936C146.206 27.6936 143.425 27.6374 143.425 27.6374C143.425 27.6374 141.094 25.3903 140.869 25.1375C140.785 25.0532 140.672 24.9971 140.56 24.9971V59.5181L150.981 56.934C150.981 56.934 146.74 28.1992 146.711 28.0026C146.655 27.8059 146.487 27.6936 146.346 27.6936Z" fill="#5E8E3E"/>
<path d="M134.774 33.0594L133.566 37.5817C133.566 37.5817 132.218 36.9637 130.617 37.0761C128.257 37.2165 128.257 38.7052 128.257 39.0704C128.398 41.0927 133.706 41.5422 134.015 46.2892C134.24 50.025 132.049 52.581 128.847 52.7777C125.027 52.9743 122.92 50.7272 122.92 50.7272L123.735 47.2723C123.735 47.2723 125.87 48.8733 127.555 48.761C128.651 48.7048 129.072 47.7779 129.016 47.1599C128.847 44.5196 124.521 44.6881 124.241 40.3344C124.016 36.6828 126.403 33.0032 131.684 32.6661C133.735 32.5257 134.774 33.0594 134.774 33.0594Z" fill="white"/>
<path d="M169.605 42.6929C168.397 42.0468 167.779 41.485 167.779 40.7266C167.779 39.7716 168.65 39.1537 169.998 39.1537C171.571 39.1537 172.975 39.7997 172.975 39.7997L174.071 36.4291C174.071 36.4291 173.06 35.6426 170.082 35.6426C165.925 35.6426 163.032 38.0301 163.032 41.3727C163.032 43.2827 164.38 44.7152 166.178 45.7545C167.638 46.5691 168.144 47.159 168.144 48.0297C168.144 48.9286 167.414 49.6589 166.066 49.6589C164.071 49.6589 162.161 48.6196 162.161 48.6196L160.981 51.9902C160.981 51.9902 162.723 53.17 165.672 53.17C169.942 53.17 173.032 51.0633 173.032 47.2713C173.003 45.2208 171.459 43.7602 169.605 42.6929Z" fill="black"/>
<path d="M186.627 35.5864C184.52 35.5864 182.863 36.5976 181.599 38.1144L181.543 38.0863L183.368 28.5361H178.621L173.987 52.861H178.734L180.307 44.5467C180.925 41.4008 182.554 39.4627 184.071 39.4627C185.138 39.4627 185.559 40.193 185.559 41.2322C185.559 41.8783 185.503 42.6929 185.363 43.3389L183.565 52.861H188.312L190.166 43.0299C190.363 41.9906 190.503 40.7547 190.503 39.9121C190.531 37.2156 189.127 35.5864 186.627 35.5864Z" fill="black"/>
<path d="M201.289 35.5859C195.559 35.5859 191.767 40.7543 191.767 46.5125C191.767 50.1921 194.042 53.1695 198.312 53.1695C203.93 53.1695 207.721 48.1416 207.721 42.243C207.75 38.8442 205.755 35.5859 201.289 35.5859ZM198.958 49.546C197.329 49.546 196.655 48.1697 196.655 46.4282C196.655 43.7036 198.059 39.2656 200.643 39.2656C202.328 39.2656 202.89 40.7262 202.89 42.1306C202.89 45.0518 201.458 49.546 198.958 49.546Z" fill="black"/>
<path d="M219.912 35.5859C216.71 35.5859 214.884 38.4229 214.884 38.4229H214.828L215.109 35.8668H210.895C210.699 37.5802 210.306 40.2206 209.94 42.1868L206.626 59.6018H211.373L212.693 52.5515H212.806C212.806 52.5515 213.789 53.1695 215.586 53.1695C221.176 53.1695 224.827 47.4394 224.827 41.6531C224.827 38.451 223.395 35.5859 219.912 35.5859ZM215.362 49.6022C214.126 49.6022 213.395 48.9 213.395 48.9L214.182 44.462C214.744 41.4846 216.289 39.5184 217.946 39.5184C219.406 39.5184 219.856 40.8666 219.856 42.1306C219.856 45.2204 218.03 49.6022 215.362 49.6022Z" fill="black"/>
<path d="M231.625 28.7607C230.108 28.7607 228.9 29.9686 228.9 31.5134C228.9 32.9179 229.799 33.901 231.147 33.901H231.204C232.692 33.901 233.956 32.8898 233.984 31.1483C233.984 29.7719 233.058 28.7607 231.625 28.7607Z" fill="black"/>
<path d="M224.968 52.8318H229.715L232.945 35.9785H228.17L224.968 52.8318Z" fill="black"/>
<path d="M245.051 35.9507H241.737L241.905 35.1643C242.186 33.5351 243.141 32.1026 244.742 32.1026C245.585 32.1026 246.259 32.3554 246.259 32.3554L247.186 28.6196C247.186 28.6196 246.372 28.1982 244.602 28.1982C242.917 28.1982 241.231 28.6758 239.939 29.7712C238.31 31.1476 237.552 33.1419 237.187 35.1643L237.046 35.9507H234.827L234.125 39.5461H236.344L233.816 52.8602H238.563L241.091 39.5461H244.377L245.051 35.9507Z" fill="black"/>
<path d="M256.511 35.9785C256.511 35.9785 253.534 43.4782 252.214 47.5792H252.158C252.073 46.259 250.978 35.9785 250.978 35.9785H245.978L248.843 51.4554C248.899 51.7925 248.871 52.0172 248.731 52.2419C248.169 53.3093 247.242 54.3486 246.147 55.107C245.248 55.753 244.237 56.1743 243.45 56.4552L244.77 60.5C245.725 60.3034 247.748 59.4888 249.433 57.9158C251.596 55.8934 253.618 52.7475 255.669 48.478L261.483 35.9785H256.511Z" fill="black"/>
</svg>
